
<svg width="16" height="15" viewBox="0 0 16 15" fill="none" xmlns="http://www.w3.org/2000/svg">
                    <path d="M7.8537 3.61765C5.64665 3.61765 3.86637 5.31754 3.86637 7.425C3.86637 9.53244 5.64665 11.2324 7.8537 11.2324C10.0608 11.2324 11.8411 9.53244 11.8411 7.425C11.8411 5.31754 10.0608 3.61765 7.8537 3.61765ZM7.8537 9.90028C6.42743 9.90028 5.26143 8.79022 5.26143 7.425C5.26143 6.05978 6.42398 4.94973 7.8537 4.94973C9.28348 4.94973 10.446 6.05978 10.446 7.425C10.446 8.79022 9.28004 9.90028 7.8537 9.90028ZM12.9342 3.46191C12.9342 3.95564 12.5178 4.34996 12.0042 4.34996C11.4871 4.34996 11.0741 3.95233 11.0741 3.46191C11.0741 2.97149 11.4906 2.57386 12.0042 2.57386C12.5178 2.57386 12.9342 2.97149 12.9342 3.46191ZM15.5751 4.36322C15.5161 3.17362 15.2315 2.11989 14.3189 1.25172C13.4096 0.383552 12.3061 0.111835 11.0603 0.0521896C9.77626 -0.0173965 5.9277 -0.0173965 4.64372 0.0521896C3.40135 0.108521 2.2978 0.380238 1.38512 1.24841C0.472434 2.11658 0.191341 3.17031 0.128876 4.3599C0.0559998 5.58594 0.0559998 9.26078 0.128876 10.4868C0.187871 11.6764 0.472434 12.7301 1.38512 13.5983C2.2978 14.4664 3.39788 14.7382 4.64372 14.7978C5.9277 14.8674 9.77626 14.8674 11.0603 14.7978C12.3061 14.7415 13.4096 14.4698 14.3189 13.5983C15.2281 12.7301 15.5126 11.6764 15.5751 10.4868C15.648 9.26078 15.648 5.58928 15.5751 4.36322ZM13.9163 11.8023C13.6456 12.4518 13.1216 12.9521 12.438 13.2139C11.4143 13.6016 8.98504 13.5121 7.8537 13.5121C6.72243 13.5121 4.28975 13.5983 3.26948 13.2139C2.58931 12.9554 2.06529 12.4551 1.79114 11.8023C1.38512 10.8248 1.47882 8.50522 1.47882 7.425C1.47882 6.34478 1.38859 4.02191 1.79114 3.04771C2.06183 2.39824 2.58584 1.89788 3.26948 1.6361C4.29322 1.24841 6.72243 1.33788 7.8537 1.33788C8.98504 1.33788 11.4177 1.25172 12.438 1.6361C13.1181 1.89457 13.6421 2.39492 13.9163 3.04771C14.3224 4.02523 14.2286 6.34478 14.2286 7.425C14.2286 8.50522 14.3224 10.8281 13.9163 11.8023Z" fill="#ffffff"/>
                  </svg>
