
<svg width="16" height="15" viewBox="0 0 16 15" fill="none" xmlns="http://www.w3.org/2000/svg">
                    <path d="M3.66819 14.85H0.442492V4.93564H3.66819V14.85ZM2.0536 3.58323C1.02235 3.58323 0.185547 2.76781 0.185547 1.78333C0.185547 1.31036 0.382359 0.856761 0.732688 0.522324C1.08302 0.187886 1.55817 0 2.0536 0C2.54904 0 3.02419 0.187886 3.37452 0.522324C3.72484 0.856761 3.92166 1.31036 3.92166 1.78333C3.92166 2.76781 3.08485 3.58323 2.0536 3.58323ZM15.7376 14.85H12.5189V10.0238C12.5189 8.87356 12.4946 7.3985 10.8418 7.3985C9.1647 7.3985 8.90775 8.64817 8.90775 9.94089V14.85H5.68555V4.93564H8.77931V6.28806H8.82442C9.25498 5.50909 10.3071 4.68703 11.8765 4.68703C15.1404 4.68703 15.7411 6.73883 15.7411 9.40389V14.85H15.7376Z" fill="#ffffff"/>
                  </svg>
