<svg width="18" height="18" viewBox="0 0 18 18" fill="none" xmlns="http://www.w3.org/2000/svg">
<path d="M8.99984 0.666668C4.3915 0.666668 0.666504 4.39167 0.666504 9C0.666504 13.6083 4.3915 17.3333 8.99984 17.3333C13.6082 17.3333 17.3332 13.6083 17.3332 9C17.3332 4.39167 13.6082 0.666668 8.99984 0.666668ZM12.5832 12.5833C12.2582 12.9083 11.7332 12.9083 11.4082 12.5833L8.99984 10.175L6.5915 12.5833C6.2665 12.9083 5.7415 12.9083 5.4165 12.5833C5.0915 12.2583 5.0915 11.7333 5.4165 11.4083L7.82484 9L5.4165 6.59167C5.0915 6.26667 5.0915 5.74167 5.4165 5.41667C5.7415 5.09167 6.2665 5.09167 6.5915 5.41667L8.99984 7.825L11.4082 5.41667C11.7332 5.09167 12.2582 5.09167 12.5832 5.41667C12.9082 5.74167 12.9082 6.26667 12.5832 6.59167L10.1748 9L12.5832 11.4083C12.8998 11.725 12.8998 12.2583 12.5832 12.5833Z" fill="white"/>
</svg>
